<?xml version="1.0" standalone="no"?>
<!DOCTYPE svg PUBLIC "-//W3C//DTD SVG 20010904//EN"
 "http://www.w3.org/TR/2001/REC-SVG-20010904/DTD/svg10.dtd">
<svg version="1.0" xmlns="http://www.w3.org/2000/svg"
 width="1024.000000pt" height="1024.000000pt" viewBox="0 0 1024.000000 1024.000000"
 preserveAspectRatio="xMidYMid meet">

<g transform="translate(0.000000,1024.000000) scale(0.100000,-0.100000)"
fill="#000000" stroke="none">
<path d="M6385 8742 c-27 -5 -623 -246 -702 -283 -77 -36 -154 -118 -182 -192
-11 -30 -41 -162 -67 -295 l-48 -241 -576 -3 -575 -3 -50 -27 c-60 -31 -104
-77 -136 -138 -21 -40 -24 -62 -27 -190 -4 -158 3 -201 44 -250 32 -37 72 -59
127 -68 l42 -7 9 -93 c4 -51 6 -95 4 -97 -2 -3 -53 20 -114 49 -476 236 -1102
234 -1572 -7 -371 -189 -623 -497 -697 -849 -20 -95 -20 -280 0 -319 17 -31
89 -89 112 -89 9 0 3 -18 -18 -56 -43 -76 -51 -169 -20 -239 l21 -48 -30 -45
c-40 -61 -53 -112 -48 -197 4 -80 32 -147 81 -197 19 -19 27 -33 20 -35 -27
-9 -65 -47 -85 -86 -17 -33 -23 -64 -26 -142 -4 -88 -1 -110 20 -171 50 -143
149 -253 292 -323 148 -73 122 -71 1176 -71 1023 0 1010 -1 1138 56 l53 23 39
-28 c72 -52 77 -52 740 -49 l615 3 57 27 c74 34 141 104 166 171 13 35 27 124
41 262 34 329 27 328 91 5 31 -157 62 -296 69 -308 24 -45 85 -104 135 -130
l51 -27 705 0 705 0 53 30 c109 60 133 110 183 379 86 458 270 1590 263 1619
-3 16 -23 46 -44 67 l-39 39 56 208 c82 303 80 375 -15 439 -17 12 -58 27 -92
33 -40 8 -60 17 -57 24 2 7 19 126 38 265 l33 253 -19 37 c-33 60 -60 68 -267
88 -272 26 -269 28 -307 -226 -31 -211 -21 -190 -91 -190 l-60 0 0 268 c0 244
-2 270 -19 298 -34 56 -68 64 -263 64 -154 0 -177 -2 -205 -20 -61 -37 -64
-50 -77 -288 l-11 -217 -20 40 c-13 26 -33 46 -56 58 -34 16 -43 16 -144 2
-60 -8 -112 -15 -115 -15 -4 0 -10 50 -14 111 -3 61 -13 127 -21 147 -26 60
-81 119 -143 149 l-57 28 -408 3 c-224 2 -405 6 -403 11 3 4 26 104 51 221 25
118 51 223 58 233 8 12 135 69 337 152 382 155 405 166 425 205 50 97 -28 212
-130 192z m1027 -1454 c3 -243 3 -244 -39 -518 -23 -151 -69 -441 -103 -644
-33 -202 -60 -379 -60 -392 0 -18 -6 -24 -21 -24 -21 0 -21 2 -15 203 3 111 8
312 11 447 7 313 33 1026 41 1108 l6 62 88 0 89 0 3 -242z m-970 190 c14 -18
18 -42 18 -110 l0 -88 -1110 0 -1110 0 0 88 c0 79 2 91 23 109 12 11 28 22 34
24 7 2 489 3 1070 2 l1057 -1 18 -24z m1637 -158 c20 0 41 -4 48 -8 14 -9 -48
-472 -122 -912 -67 -396 -55 -355 -115 -407 -28 -25 -70 -70 -92 -100 -22 -30
-41 -53 -43 -51 -2 2 19 160 46 351 27 192 69 514 94 715 25 202 48 380 51
396 6 27 8 28 51 22 25 -3 62 -6 82 -6z m-1219 -227 c0 -10 11 -137 25 -283
41 -435 83 -919 89 -1012 l6 -88 -32 6 c-58 11 -137 52 -147 76 -5 13 -19 124
-31 248 -11 124 -39 409 -60 635 -22 225 -38 411 -36 413 4 4 119 19 159 21
20 1 27 -4 27 -16z m-368 -248 c3 -56 2 -60 -21 -63 -20 -3 -23 0 -18 20 3 12
9 55 13 93 6 61 8 66 15 40 5 -16 10 -57 11 -90z m1203 -5 c-4 -36 -40 -300
-81 -587 -41 -287 -74 -527 -74 -532 0 -7 -28 -11 -71 -11 l-72 0 7 43 c3 23
47 292 98 597 l91 555 54 0 54 0 -6 -65z m-4007 -8 c331 -72 610 -235 779
-454 99 -130 173 -313 189 -467 l7 -71 -1307 0 -1307 0 6 63 c24 224 116 408
292 578 183 178 414 296 681 349 145 29 141 28 362 25 159 -2 226 -8 298 -23z
m4609 -172 c13 0 18 21 -63 -280 -31 -118 -61 -219 -67 -225 -7 -7 -8 -5 -5 5
3 8 23 127 44 263 36 237 39 248 59 243 11 -3 25 -6 32 -6z m-1773 -257 c33
-172 55 -310 56 -356 0 -16 -6 -14 -39 12 -39 31 -136 81 -158 81 -19 0 -22
10 -64 202 -22 101 -42 190 -45 199 -3 13 11 19 78 31 149 28 130 47 172 -169z
m-2028 -802 c49 -22 79 -61 95 -124 10 -40 9 -51 -5 -72 -24 -37 -92 -34 -187
7 -56 24 -93 32 -154 36 -85 5 -135 -8 -285 -74 -51 -22 -80 -28 -135 -28 -61
-1 -82 5 -163 42 -193 88 -303 83 -512 -25 -48 -24 -66 -28 -140 -28 -83 1
-88 2 -195 55 l-109 55 -111 0 c-103 0 -115 -2 -185 -33 -137 -61 -270 -50
-278 22 -9 73 30 145 93 172 24 11 238 13 1130 13 1052 1 1102 0 1141 -18z
m85 -894 c49 -33 61 -61 56 -137 -8 -121 -83 -225 -207 -284 l-65 -31 -975 -3
c-1091 -3 -1044 -6 -1158 67 -95 62 -152 160 -155 267 -1 59 18 95 66 124 31
19 60 20 1218 20 l1186 0 34 -23z"/>
<path d="M3324 6613 c-12 -2 -34 -18 -50 -34 -23 -24 -29 -39 -29 -75 0 -39 5
-50 33 -75 85 -76 215 1 179 107 -18 56 -76 89 -133 77z"/>
<path d="M2783 6395 c-33 -33 -35 -39 -30 -81 5 -52 26 -79 73 -94 25 -9 43
-9 68 0 47 15 68 42 73 94 5 42 3 48 -30 81 -29 29 -42 35 -77 35 -35 0 -48
-6 -77 -35z"/>
<path d="M3793 6404 c-18 -9 -39 -31 -48 -51 -36 -75 15 -153 100 -153 117 0
148 161 39 206 -42 18 -51 17 -91 -2z"/>
<path d="M5079 3681 c-418 -59 -715 -429 -685 -855 8 -122 29 -205 76 -303 94
-194 264 -340 475 -409 107 -35 292 -44 408 -20 165 34 276 95 402 221 75 75
98 106 138 185 68 137 89 226 89 385 0 149 -20 241 -76 359 -98 204 -289 359
-509 415 -87 23 -238 33 -318 22z m294 -338 c169 -80 269 -252 270 -463 1
-101 -15 -174 -55 -253 -116 -232 -404 -316 -630 -184 -148 86 -243 295 -223
492 16 162 89 292 214 378 73 50 142 67 256 64 88 -2 108 -6 168 -34z"/>
<path d="M6585 3674 c-320 -63 -485 -376 -342 -647 60 -114 156 -175 431 -272
88 -31 177 -68 198 -81 52 -33 78 -78 78 -136 0 -124 -168 -191 -355 -142 -71
18 -133 53 -190 106 -65 59 -85 54 -172 -41 -92 -101 -96 -127 -28 -190 136
-126 314 -191 517 -191 264 1 462 120 533 320 45 127 39 256 -15 367 -58 117
-163 187 -410 271 -180 61 -233 86 -265 123 -67 80 -22 189 94 228 74 24 221
6 290 -37 14 -9 45 -31 69 -50 65 -52 84 -47 169 42 92 96 96 119 26 184 -136
126 -409 190 -628 146z"/>
<path d="M3047 3643 c-47 -12 -47 -16 -47 -767 0 -495 3 -712 11 -729 17 -37
50 -47 155 -47 99 0 146 13 158 45 3 9 6 115 6 235 l0 218 218 5 c236 5 288
14 397 67 116 56 202 153 247 276 32 88 32 263 0 357 -44 126 -147 235 -277
293 -111 48 -162 54 -520 53 -181 -1 -338 -3 -348 -6z m678 -294 c55 -14 122
-70 146 -123 26 -58 24 -139 -5 -201 -28 -60 -46 -77 -111 -107 -45 -20 -68
-23 -237 -26 l-188 -4 0 236 0 236 176 0 c96 0 195 -5 219 -11z"/>
</g>
</svg>
